# xmcd CD database file
#
# Track frame offsets:
#	150
#	12873
#	25735
#	40517
#	53231
#	60102
#	72858
#	85859
#	98604
#	111716
#	125913
#	141027
#	155971
#	168805
#	181819
#	196795
#	209225
#	221161
#
# Disc length: 3143 seconds
#
# Revision: 0
# Processed by: cddbd v1.5.1PL0 Copyright (c) Steve Scherf et al.
# Submitted via: CDex 1.60beta1-cs1
#
DISCID=fd0c4512
DTITLE=Various Artsists - The greatest Era in Jazz from Swing to Bebop CD9
DYEAR=1900
DGENRE=Jazz
TTITLE0=Muggsy Spanier - Angry
TTITLE1=Peggy Lee - It's A Good Day
TTITLE2=Lester Young - Every Tub
TTITLE3=Jimmie Noone - A Porter's Love Song
TTITLE4=Frank Sinatra - Exactly Like You
TTITLE5=Sarah Vaughan - Can't Get Out Of This Mood
TTITLE6=George Wettling - Everybody Loves My Baby
TTITLE7=John Kirby - 20th Century Closet
TTITLE8=Cab Calloway - Ghost Of A Chance
TTITLE9=Red Nichols - Davenport Blues
TTITLE10=George Wettling - China Boy
TTITLE11=Dinah Washington - Feel Like I Wann Cry
TTITLE12=Bing Crosby - Ain't Got A Dime To My Name
TTITLE13=Sidney Bechet - Ja-Da
TTITLE14=Doris Day - It Could happen To You
TTITLE15=Frank Sinatra - All Of Me
TTITLE16=Lu Watters - Cake Walking Babies From Home
TTITLE17=Buddy Rich - Dateless Brown
EXTD=
EXTT0=
EXTT1=
EXTT2=
EXTT3=
EXTT4=
EXTT5=
EXTT6=
EXTT7=
EXTT8=
EXTT9=
EXTT10=
EXTT11=
EXTT12=
EXTT13=
EXTT14=
EXTT15=
EXTT16=
EXTT17=
PLAYORDER=
